<svg version="1.1" viewBox="0 0 18 12" xmlns="http://www.w3.org/2000/svg">
 <title>menu</title>
 <desc>Created with Sketch.</desc>
 <g id="Icons" fill="none" fill-rule="evenodd">
  <g id="Rounded" transform="translate(-885 -3438)">
   <g id="Navigation" transform="translate(100 3378)">
    <g id="-Round-/-Navigation-/-menu" transform="translate(782 54)">
     <g transform="translate(0)">
      <polygon id="Path" points="0 0 24 0 24 24 0 24"/>
      <path id="🔹-Icon-Color" d="m4 18h16c0.55 0 1-0.45 1-1s-0.45-1-1-1h-16c-0.55 0-1 0.45-1 1s0.45 1 1 1zm0-5h16c0.55 0 1-0.45 1-1s-0.45-1-1-1h-16c-0.55 0-1 0.45-1 1s0.45 1 1 1zm-1-6c0 0.55 0.45 1 1 1h16c0.55 0 1-0.45 1-1s-0.45-1-1-1h-16c-0.55 0-1 0.45-1 1z" fill="#1D1D1D"/>
     </g>
    </g>
   </g>
  </g>
 </g>
</svg>
