<svg  version="1.1" viewBox="0 0 34.195 57.372" xmlns="http://www.w3.org/2000/svg">
 <path transform="scale(.26458)" d="m24.207 0a8.0776 8.0776 0 0 0-8.0566 8.0781 8.0776 8.0776 0 0 0 8.0781 8.0762 8.0776 8.0776 0 0 0 8.0762-8.0762 8.0776 8.0776 0 0 0-8.0762-8.0781 8.0776 8.0776 0 0 0-0.021485 0zm0.025391 18.305c-4.7697 0.30848-8.3866 4.4238-8.0781 9.1934v6.9609h-6.959a9.1946 9.1946 0 0 0-9.1953 9.1953v62.385a9.1946 9.1946 0 0 0 9.1953 9.1953h6.959v16.154h-6.959a9.1946 9.1946 0 0 0-9.1953 9.1934v57.789a13.792 13.792 0 0 0 7.1289 12.074c-0.99792 0.60319-1.6699 1.6875-1.6699 2.9434 0 1.911 1.5401 3.4512 3.4512 3.4512h111.41c1.911 0 3.4492-1.5401 3.4492-3.4512 0-1.2548-0.66956-2.3379-1.666-2.9414a13.792 13.792 0 0 0 7.1328-12.076v-57.789a9.1946 9.1946 0 0 0-9.1953-9.1934h-87.734v-16.154h71.58a9.1946 9.1946 0 0 0 9.1934-9.1953v-62.385a9.1946 9.1946 0 0 0-9.1934-9.1953h-71.58v-8.0781c2.17e-4 -4.461-3.617-8.0757-8.0781-8.0762zm-1.1934 32.311a6.896 6.896 0 0 1 0.011719 0h66.982a6.896 6.896 0 0 1 6.8965 6.8945v34.672a6.896 6.896 0 0 1-6.8965 6.8965h-66.982a6.896 6.896 0 0 1-6.8965-6.8965v-34.672a6.896 6.896 0 0 1 6.8848-6.8945zm61.393 16.203a8.0776 8.0776 0 0 0-8.0566 8.0781 8.0776 8.0776 0 0 0 8.0781 8.0781 8.0776 8.0776 0 0 0 8.0781-8.0781 8.0776 8.0776 0 0 0-8.0781-8.0781 8.0776 8.0776 0 0 0-0.021484 0zm-61.072 80.727a7.3557 7.3557 0 0 1 0.15039 0h82.219a7.3557 7.3557 0 0 1 7.3555 7.3555v33.754a7.3557 7.3557 0 0 1-7.3555 7.3555h-82.219a7.3557 7.3557 0 0 1-7.3555-7.3555v-33.754a7.3557 7.3557 0 0 1 7.2051-7.3555z" stroke-width="1.5478"/>
</svg>
