<svg  version="1.1" viewBox="0 0 62.949 12.411" xmlns="http://www.w3.org/2000/svg">
 <path transform="scale(.26458)" d="m5.2363 0a1.744 1.744 0 0 0-1.7441 1.7441 1.744 1.744 0 0 0 1.7441 1.7441 1.744 1.744 0 0 0 1.7441-1.7441 1.744 1.744 0 0 0-1.7441-1.7441zm-0.0039062 3.9531v0.0019531c-1.0298 0.066601-1.8107 0.95461-1.7441 1.9844v1.502h-1.5039a1.9851 1.9851 0 0 0-1.9844 1.9863v13.469a1.9851 1.9851 0 0 0 1.9844 1.9844h1.5039v3.4883h-1.5039a1.9851 1.9851 0 0 0-1.9844 1.9844v12.477a2.9777 2.9777 0 0 0 1.9492 2.7949c-0.21321 0.11663-0.36328 0.33461-0.36328 0.5957 0 0.38119 0.30631 0.6875 0.6875 0.6875h23.355c0.38119 0 0.68945-0.30632 0.68945-0.6875 0-0.26109-0.15008-0.47907-0.36328-0.5957a2.9777 2.9777 0 0 0 1.9473-2.7949v-12.477a1.9851 1.9851 0 0 0-1.9844-1.9844h-18.941v-3.4883h15.453a1.9851 1.9851 0 0 0 1.9863-1.9844v-13.469a1.9851 1.9851 0 0 0-1.9863-1.9863h-15.453v-1.7441c4.69e-5 -0.96314-0.78097-1.744-1.7441-1.7441zm-0.25586 6.9766h14.461a1.4889 1.4889 0 0 1 1.4902 1.4883v7.4863a1.4889 1.4889 0 0 1-1.4902 1.4883h-14.461a1.4889 1.4889 0 0 1-1.4883-1.4883v-7.4863a1.4889 1.4889 0 0 1 1.4883-1.4883zm13.18 3.498a1.7439 1.7439 0 0 0-1.6699 1.7422 1.7439 1.7439 0 0 0 1.7441 1.7441 1.7439 1.7439 0 0 0 1.7441-1.7441 1.7439 1.7439 0 0 0-1.7441-1.7422 1.7439 1.7439 0 0 0-0.074219 0zm22.6 2.6797v15.012h1.623v-1.4668h0.041016c0.68658 1.1355 1.6989 1.7051 3.0391 1.7051 1.4326 0 2.5615-0.50872 3.3867-1.5254 0.82522-1.0233 1.2383-2.3834 1.2383-4.0801 0-1.525-0.36998-2.7401-1.1094-3.6445-0.7328-0.91104-1.7502-1.3672-3.0508-1.3672-1.5382 0-2.7051 0.67472-3.5039 2.0215h-0.041016v-6.6543h-1.623zm25.453 0.1875c-0.29048 0-0.53754 0.10199-0.74219 0.30664-0.20465 0.19805-0.30664 0.44827-0.30664 0.75195s0.10199 0.55585 0.30664 0.75391c0.20465 0.19805 0.45171 0.29688 0.74219 0.29688 0.29709 0 0.54926-0.10199 0.75391-0.30664 0.21125-0.20466 0.31641-0.45366 0.31641-0.74414 0-0.30368-0.10516-0.5539-0.31641-0.75195-0.20466-0.20465-0.45683-0.30664-0.75391-0.30664zm99.324 0c-0.29048 0-0.53949 0.10199-0.74414 0.30664-0.20465 0.19805-0.30664 0.44827-0.30664 0.75195s0.10199 0.55585 0.30664 0.75391c0.20466 0.19805 0.45366 0.29688 0.74414 0.29688 0.29709 0 0.54731-0.10199 0.75196-0.30664 0.21125-0.20466 0.3164-0.45366 0.3164-0.74414 0-0.30368-0.10515-0.5539-0.3164-0.75195-0.20466-0.20465-0.45488-0.30664-0.75196-0.30664zm35.697 0c-0.29049 0-0.53754 0.10199-0.74219 0.30664-0.20465 0.19805-0.30664 0.44827-0.30664 0.75195s0.10199 0.55585 0.30664 0.75391c0.20466 0.19805 0.45171 0.29688 0.74219 0.29688 0.29708 0 0.54926-0.10199 0.75391-0.30664 0.21125-0.20466 0.3164-0.45366 0.3164-0.74414 0-0.30368-0.10515-0.5539-0.3164-0.75195-0.20466-0.20465-0.45683-0.30664-0.75391-0.30664zm-127.75 1.6836-1.623 0.52344v2.4766h-1.7441v1.3867h1.7441v6c0 1.9805 0.88819 2.9707 2.6641 2.9707 0.62717-1e-6 1.1308-0.10515 1.5137-0.31641v-1.3867c-0.29708 0.22446-0.64928 0.33789-1.0586 0.33789-0.53475 0-0.91738-0.14507-1.1484-0.43555s-0.34766-0.77705-0.34766-1.457v-5.7129h2.5547v-1.3867h-2.5547v-3zm121.13 0-1.623 0.52344v2.4766h-1.7441v1.3867h1.7441v6c0 1.9805 0.88819 2.9707 2.6641 2.9707 0.62717-1e-6 1.1308-0.10515 1.5137-0.31641v-1.3867c-0.29708 0.22446-0.64928 0.33789-1.0586 0.33789-0.53476 0-0.91739-0.14507-1.1484-0.43555-0.23106-0.29048-0.34766-0.77705-0.34766-1.457v-5.7129h2.5547v-1.3867h-2.5547v-3zm-136.91 2.7617c-1.327 0-2.44 0.49923-3.3379 1.4961-0.89124 0.99027-1.3359 2.2737-1.3359 3.8516 0 1.6702 0.4099 2.9683 1.2285 3.8926 0.81862 0.91765 1.9444 1.377 3.377 1.377 1.4656 0 2.6439-0.32373 3.5352-0.9707v-1.5254c-0.95726 0.7526-2.0083 1.1289-3.1504 1.1289-1.0167 0-1.8155-0.30791-2.3965-0.92188-0.58096-0.61396-0.88375-1.4844-0.91016-2.6133h7.1602v-0.85156c0-1.525-0.36365-2.7179-1.0898-3.5762s-1.7531-1.2871-3.0801-1.2871zm26.141 0c-1.5976 0-2.8748 0.50872-3.832 1.5254-0.95726 1.0101-1.4375 2.3512-1.4375 4.0215 0 1.4986 0.44349 2.72 1.3281 3.6641 0.89124 0.93745 2.0601 1.4062 3.5059 1.4062 1.0695 0 1.9925-0.2344 2.7715-0.70312v-1.5449c-0.77901 0.58756-1.6095 0.88086-2.4941 0.88086-1.0497 0-1.8885-0.34271-2.5156-1.0293-0.62057-0.68658-0.93164-1.6242-0.93164-2.8125 0-1.2081 0.33006-2.1825 0.99023-2.9219 0.66678-0.746 1.5182-1.1191 2.5547-1.1191 0.85823 0 1.6634 0.26483 2.416 0.79297v-1.6641c-0.67998-0.33009-1.4642-0.49609-2.3555-0.49609zm10.33 0c-1.5844 0-2.8426 0.48024-3.7734 1.4375-0.93085 0.95726-1.3945 2.287-1.3945 3.9902 0 1.5646 0.4447 2.8228 1.3359 3.7734 0.89784 0.94405 2.0951 1.416 3.5938 1.416 1.5382 0 2.7628-0.48657 3.6738-1.457 0.91765-0.97706 1.377-2.2732 1.377-3.8906 0-1.6504-0.42572-2.9422-1.2773-3.873-0.84503-0.93085-2.0234-1.3965-3.5352-1.3965zm13.262 0c-1.3798 0-2.4288 0.61387-3.1484 1.8418h-0.03907v-1.6035h-1.625v10.141h1.625v-5.7832c0-0.95726 0.23124-1.734 0.69336-2.3281 0.46213-0.60076 1.0487-0.90039 1.7617-0.90039 1.5382 0 2.3066 0.9965 2.3066 2.9902v6.0215h1.625v-5.7832c0-0.88464 0.24073-1.6436 0.72266-2.2773 0.48853-0.63377 1.0802-0.95117 1.7734-0.95117 0.81862 0 1.3989 0.25022 1.7422 0.75195 0.3499 0.50174 0.52539 1.3152 0.52539 2.4375v5.8223h1.623v-6.248c0-2.7529-1.1162-4.1309-3.3476-4.1309-1.492 0-2.6126 0.70003-3.3652 2.0996-0.19145-0.62717-0.54561-1.1327-1.0606-1.5156-0.51493-0.3895-1.1193-0.58398-1.8125-0.58398zm18.512 0c-1.3798 0-2.4308 0.61387-3.1504 1.8418h-0.03906v-1.6035h-1.623v10.141h1.623v-5.7832c0-0.95726 0.23124-1.734 0.69336-2.3281 0.46212-0.60076 1.0487-0.90039 1.7617-0.90039 1.5382 0 2.3086 0.9965 2.3086 2.9902v6.0215h1.623v-5.7832c0-0.88464 0.24072-1.6436 0.72265-2.2773 0.48854-0.63377 1.0803-0.95117 1.7734-0.95117 0.81862 0 1.3989 0.25022 1.7422 0.75195 0.34989 0.50174 0.52539 1.3152 0.52539 2.4375v5.8223h1.625v-6.248c0-2.7529-1.1163-4.1309-3.3477-4.1309-1.492 0-2.6146 0.70003-3.3672 2.0996-0.19146-0.62717-0.54561-1.1327-1.0606-1.5156-0.51494-0.3895-1.1174-0.58398-1.8106-0.58398zm31.217 0c-1.4524 0-2.5604 0.64113-3.3262 1.9219h-0.04102v-1.6836h-1.623v10.141h1.623v-5.7832c0-0.93085 0.26483-1.6993 0.79297-2.3066 0.53474-0.61396 1.2075-0.92188 2.0195-0.92188 1.5712 0 2.3574 1.0763 2.3574 3.2285v5.7832h1.623v-6.1992c0-1.3534-0.2933-2.3866-0.88086-3.0996-0.58756-0.71959-1.4358-1.0801-2.5449-1.0801zm18.068 0c-1.5976 0-2.8767 0.50872-3.834 1.5254-0.95725 1.0101-1.4355 2.3512-1.4355 4.0215 0 1.4986 0.44349 2.72 1.3281 3.6641 0.89124 0.93745 2.0581 1.4062 3.5039 1.4062 1.0695 0 1.9944-0.2344 2.7734-0.70312v-1.5449c-0.77901 0.58756-1.6115 0.88086-2.4961 0.88086-1.0497 0-1.8865-0.34271-2.5137-1.0293-0.62057-0.68658-0.93164-1.6242-0.93164-2.8125 0-1.2081 0.33006-2.1825 0.99023-2.9219 0.66678-0.746 1.5182-1.1191 2.5547-1.1191 0.85823 0 1.6634 0.26483 2.416 0.79297v-1.6641c-0.67998-0.33009-1.4642-0.49609-2.3555-0.49609zm9.5371 0c-1.3006 0-2.4484 0.3174-3.4453 0.95117v1.6641c0.98366-0.83182 2.0853-1.248 3.3066-1.248 1.393 0 2.0898 0.86092 2.0898 2.584l-3.0391 0.42578c-2.2314 0.31028-3.3477 1.4139-3.3477 3.3086 0 0.88464 0.28381 1.5942 0.85156 2.1289 0.57436 0.53474 1.3669 0.80273 2.377 0.80273 1.3732 0 2.4128-0.60754 3.1191-1.8223h0.03906v1.584h1.625v-6.5957c0-2.5219-1.1929-3.7832-3.5762-3.7832zm26.061 0c-1.5844 0-2.8406 0.48024-3.7715 1.4375-0.93085 0.95726-1.3965 2.287-1.3965 3.9902 0 1.5646 0.4447 2.8228 1.3359 3.7734 0.89785 0.94405 2.0971 1.416 3.5957 1.416 1.5382 0 2.7628-0.48657 3.6738-1.457 0.91765-0.97706 1.377-2.2732 1.377-3.8906 0-1.6504-0.42572-2.9422-1.2774-3.873-0.84502-0.93085-2.0253-1.3965-3.5371-1.3965zm13.441 0c-1.4524 0-2.5623 0.64113-3.3281 1.9219h-0.03907v-1.6836h-1.623v10.141h1.623v-5.7832c0-0.93085 0.26483-1.6993 0.79297-2.3066 0.53475-0.61396 1.2075-0.92188 2.0195-0.92188 1.5712 0 2.3574 1.0763 2.3574 3.2285v5.7832h1.623v-6.1992c0-1.3534-0.2933-2.3866-0.88086-3.0996-0.58755-0.71959-1.4358-1.0801-2.5449-1.0801zm10.826 0c-0.49513 0-0.97658 0.064021-1.4453 0.18945-0.46212 0.12543-0.87518 0.31358-1.2383 0.56445-0.3631 0.24426-0.65324 0.55022-0.87109 0.91992-0.21786 0.3631-0.32813 0.78248-0.32813 1.2578 0 0.3895 0.05574 0.72905 0.16797 1.0195 0.11884 0.29048 0.29117 0.55214 0.51562 0.7832 0.23106 0.22446 0.51488 0.42843 0.85157 0.61328 0.34329 0.17825 0.74053 0.35691 1.1894 0.53516 0.32349 0.12544 0.62312 0.24836 0.90039 0.36719 0.28388 0.11223 0.52777 0.23953 0.73242 0.38477 0.21126 0.14524 0.37727 0.31441 0.4961 0.50586 0.12543 0.18485 0.1875 0.41292 0.1875 0.68359 0 0.95066-0.71269 1.4258-2.1387 1.4258-1.0629 0-2.0372-0.32689-2.9219-0.98047v1.7422c0.7658 0.40271 1.6698 0.60547 2.7129 0.60547 0.52814 0 1.0337-0.060857 1.5156-0.17969s0.90764-0.30066 1.2773-0.54492c0.3697-0.24426 0.66301-0.55022 0.88086-0.91992 0.22445-0.3697 0.33789-0.80491 0.33789-1.3066 0-0.40931-0.07035-0.76347-0.20899-1.0605-0.13204-0.29708-0.32335-0.55679-0.57421-0.78125-0.25087-0.23106-0.55367-0.43699-0.91016-0.61523-0.3565-0.18485-0.76006-0.36351-1.209-0.53516-0.33669-0.13204-0.63632-0.253-0.90039-0.36523s-0.48898-0.23832-0.67382-0.37695c-0.18486-0.13864-0.32676-0.29636-0.42579-0.47461-0.09242-0.17825-0.13867-0.39999-0.13867-0.66406 0-0.21126 0.04625-0.40257 0.13867-0.57422 0.09904-0.17825 0.23461-0.32964 0.40626-0.45508 0.17825-0.12543 0.38855-0.22109 0.63281-0.28711 0.24426-0.07262 0.51858-0.10938 0.82226-0.10938 0.97046 0 1.8282 0.24389 2.5742 0.73242v-1.6426c-0.69318-0.30368-1.4774-0.45703-2.3555-0.45703zm-169.72 0.23828v10.141h1.623v-10.141h-1.623zm74.045 0v6.0605c0 2.8784 1.2088 4.3184 3.625 4.3184 1.4128 0 2.4555-0.61387 3.1289-1.8418h0.03907v1.6035h1.625v-10.141h-1.625v5.8418c0 0.94405-0.25655 1.7113-0.77149 2.2988-0.50833 0.58096-1.159 0.87109-1.9512 0.87109-1.6372 0-2.4551-1.07-2.4551-3.209v-5.8027h-1.6152zm25.277 0v10.141h1.623v-10.141h-1.623zm35.697 0v10.141h1.625v-10.141h-1.625zm-154.88 1.1289c0.89124 0 1.5976 0.32056 2.1191 0.96094 0.52154 0.64037 0.78125 1.5254 0.78125 2.6543 0 1.3402-0.28064 2.3861-0.8418 3.1387-0.55455 0.7526-1.323 1.1289-2.3066 1.1289-0.83842 0-1.5321-0.29014-2.0801-0.87109-0.54134-0.58756-0.8125-1.3002-0.8125-2.1387v-1.416c0-0.99027 0.28697-1.8132 0.86133-2.4668 0.57436-0.66018 1.3352-0.99023 2.2793-0.99023zm12.152 0c0.79221 0 1.4092 0.26166 1.8516 0.7832 0.44897 0.52154 0.67704 1.25 0.68359 2.1875h-5.4766c0.12544-0.88464 0.45549-1.6005 0.99023-2.1484 0.53474-0.54795 1.1854-0.82227 1.9512-0.82227zm36.381 0c1.0497 0 1.8549 0.34271 2.416 1.0293 0.56775 0.68658 0.85156 1.6641 0.85156 2.9316 1e-6 1.2543-0.28381 2.2224-0.85156 2.9023-0.56115 0.67998-1.3663 1.0195-2.416 1.0195-1.0299 0-1.8509-0.34588-2.4648-1.0391-0.61396-0.69319-0.92188-1.6422-0.92188-2.8438 0-1.2477 0.30475-2.2233 0.91211-2.9297 0.60736-0.71299 1.4315-1.0703 2.4746-1.0703zm116.66 0c1.0497 0 1.8549 0.34271 2.416 1.0293 0.56775 0.68658 0.85157 1.6641 0.85157 2.9316 0 1.2543-0.28382 2.2224-0.85157 2.9023-0.56115 0.67998-1.3663 1.0195-2.416 1.0195-1.0299 0-1.8528-0.34588-2.4668-1.0391-0.61396-0.69319-0.91992-1.6422-0.91992-2.8438 0-1.2477 0.30279-2.2233 0.91016-2.9297 0.60736-0.71299 1.4335-1.0703 2.4766-1.0703zm-23.992 3.8828v1.0098c0 0.86483-0.26287 1.5807-0.79102 2.1484-0.52154 0.56115-1.1868 0.8418-1.9922 0.8418-0.58756 0-1.0595-0.15456-1.416-0.46484-0.34989-0.31689-0.52344-0.72362-0.52344-1.2188 0-0.67998 0.19132-1.1519 0.57422-1.416 0.38291-0.27067 0.95053-0.45882 1.7031-0.56445l2.4453-0.33594zm-181.64 4.8672h17.75a1.5881 1.5881 0 0 1 1.5898 1.5879v7.2871a1.5881 1.5881 0 0 1-1.5898 1.5879h-17.75a1.5881 1.5881 0 0 1-1.5879-1.5879v-7.2871a1.5881 1.5881 0 0 1 1.5879-1.5879z" stroke-width=".33418"/>
</svg>
