<svg version="1.1" viewBox="0 0 20 16" xmlns="http://www.w3.org/2000/svg">
 <g id="Icons" fill="none" fill-rule="evenodd">
  <g id="Rounded" transform="translate(-102 -1264)">
   <g id="Communication" transform="translate(100 1162)">
    <g id="-Round-/-Communication-/-mail_outline" transform="translate(0 98)">
     <polygon id="Path" points="0 0 24 0 24 24 0 24"/>
     <path id="🔹Icon-Color" d="m20 4h-16c-1.1 0-1.99 0.9-1.99 2l-0.01 12c0 1.1 0.9 2 2 2h16c1.1 0 2-0.9 2-2v-12c0-1.1-0.9-2-2-2zm-1 14h-14c-0.55 0-1-0.45-1-1v-9l6.94 4.34c0.65 0.41 1.47 0.41 2.12 0l6.94-4.34v9c0 0.55-0.45 1-1 1zm-7-7-8-5h16l-8 5z" fill="#1D1D1D"/>
    </g>
   </g>
  </g>
 </g>
</svg>
